HIERARCHY
ROOT root
{
	OFFSET 0.000000 0.000000 0.000000
	CHANNELS 6 Xposition Yposition Zposition Zrotation Yrotation Xrotation
	JOINT lhip
	{
		OFFSET 0.058581 -0.082280 -0.017664
		CHANNELS 3 Zrotation Yrotation Xrotation
		JOINT lknee
		{
			OFFSET 0.043451 -0.386469 0.008037
			CHANNELS 3 Zrotation Yrotation Xrotation
			JOINT lankle
			{
				OFFSET -0.014790 -0.426874 -0.037428
				CHANNELS 3 Zrotation Yrotation Xrotation
				JOINT ltoe
				{
					OFFSET 0.041054 -0.060286 0.122042
					CHANNELS 3 Zrotation Yrotation Xrotation
					End Site
					{
						OFFSET 0.000000 0.000000 0.000000
					}
				}
			}
		}
	}
	JOINT rhip
	{
		OFFSET -0.060310 -0.090513 -0.013543
		CHANNELS 3 Zrotation Yrotation Xrotation
		JOINT rknee
		{
			OFFSET -0.043257 -0.383688 -0.004843
			CHANNELS 3 Zrotation Yrotation Xrotation
			JOINT rankle
			{
				OFFSET 0.019056 -0.420046 -0.034562
				CHANNELS 3 Zrotation Yrotation Xrotation
				JOINT rtoe
				{
					OFFSET -0.034840 -0.062106 0.130323
					CHANNELS 3 Zrotation Yrotation Xrotation
					End Site
					{
						OFFSET 0.000000 0.000000 0.000000
					}
				}
			}
		}
	}
	JOINT lowerback
	{
		OFFSET 0.004439 0.124404 -0.038385
		CHANNELS 3 Zrotation Yrotation Xrotation
		JOINT upperback
		{
			OFFSET 0.004488 0.137956 0.026820
			CHANNELS 3 Zrotation Yrotation Xrotation
			JOINT chest
			{
				OFFSET -0.002265 0.056032 0.002855
				CHANNELS 3 Zrotation Yrotation Xrotation
				JOINT lowerneck
				{
					OFFSET -0.013390 0.211636 -0.033468
					CHANNELS 3 Zrotation Yrotation Xrotation
					JOINT upperneck
					{
						OFFSET 0.010113 0.088937 0.050410
						CHANNELS 3 Zrotation Yrotation Xrotation
						End Site
						{
							OFFSET 0.000000 0.000000 0.000000
						}
					}
				}
				JOINT lclavicle
				{
					OFFSET 0.071702 0.114000 -0.018898
					CHANNELS 3 Zrotation Yrotation Xrotation
					JOINT lshoulder
					{
						OFFSET 0.122921 0.045205 -0.019046
						CHANNELS 3 Zrotation Yrotation Xrotation
						JOINT lelbow
						{
							OFFSET 0.255332 -0.015649 -0.022946
							CHANNELS 3 Zrotation Yrotation Xrotation
							JOINT lwrist
							{
								OFFSET 0.265709 0.012698 -0.007375
								CHANNELS 3 Zrotation Yrotation Xrotation
								End Site
								{
									OFFSET 0.000000 0.000000 0.000000
								}
							}
						}
					}
				}
				JOINT rclavicle
				{
					OFFSET -0.082954 0.112472 -0.023707
					CHANNELS 3 Zrotation Yrotation Xrotation
					JOINT rshoulder
					{
						OFFSET -0.113228 0.046853 -0.008472
						CHANNELS 3 Zrotation Yrotation Xrotation
						JOINT relbow
						{
							OFFSET -0.260127 -0.014369 -0.031269
							CHANNELS 3 Zrotation Yrotation Xrotation
							JOINT rwrist
							{
								OFFSET -0.269108 0.006794 -0.006027
								CHANNELS 3 Zrotation Yrotation Xrotation
								End Site
								{
									OFFSET 0.000000 0.000000 0.000000
								}
							}
						}
					}
				}
			}
		}
	}
}
MOTION
Frames: 16
Frame Time: 0.033333
2.355380 0.669444 0.995312 -92.180936 0.673360 84.760316 -4.338358 1.069956 3.387993 1.422411 -5.410666 2.906673 5.152293 14.286717 -12.491233 0.000000 -0.000000 0.000000 2.862594 -0.810155 0.739737 -3.903709 -0.698149 7.541464 0.232109 -10.588661 -12.694648 0.000000 -0.000000 0.000000 -1.548525 3.015969 8.067153 -0.437477 -1.859205 6.382433 -1.187353 0.977529 -2.115314 2.867639 -1.356582 -3.421633 6.389291 -1.705213 -3.717235 -26.543264 -5.372712 -1.850556 -52.159860 -5.795854 14.872174 3.590658 -20.595328 2.021140 -8.031720 -3.581847 5.739378 25.236601 9.434913 -0.110035 58.813733 2.785948 19.328740 -4.242560 26.497113 6.787012 5.977957 4.194799 4.970529 
2.354109 0.667398 0.994907 -92.196775 0.729051 85.038351 -4.365912 0.888216 3.122433 1.409004 -5.486989 2.637736 2.955855 13.373300 -11.697368 0.000000 -0.000000 0.000000 2.743675 -0.219153 0.440113 -3.858925 -0.893529 7.705499 0.385180 -10.917899 -12.649608 0.000000 -0.000000 0.000000 -1.632726 3.257647 7.951476 -0.299438 -1.760705 6.068850 -1.046670 0.900411 -1.763619 2.764218 -1.028775 -3.307674 6.485110 -1.923133 -4.492267 -26.413281 -5.051092 -1.586490 -52.386132 -5.478742 15.088759 3.552103 -20.568444 2.679089 -7.835497 -3.967624 6.196223 25.599759 9.448919 0.107563 58.809817 2.763848 19.103661 -5.047493 27.110951 6.167275 5.303577 4.679901 4.708339 
2.350588 0.664090 0.995144 -91.631750 0.781707 85.024921 -4.542634 0.748777 3.523301 1.371487 -5.804881 2.398275 3.066701 13.160880 -11.812981 0.000000 -0.000000 0.000000 2.437185 -0.554387 0.632799 -3.743608 -1.089893 7.991872 0.448276 -11.039888 -12.970457 0.000000 -0.000000 0.000000 -1.608642 3.320056 7.615041 -0.176699 -1.966265 6.462152 -0.933384 0.644691 -1.736461 2.657133 -0.893517 -3.516670 6.286568 -1.975516 -4.892697 -26.404721 -4.896801 -1.284779 -52.611687 -5.041087 14.795332 3.116070 -20.617761 2.814137 -8.586537 -3.947479 5.951438 25.651739 9.273688 0.152184 58.758248 2.645293 18.706365 -5.542463 27.513521 5.756017 5.699107 4.860055 4.948775 
2.348718 0.660097 0.994588 -91.547903 0.769059 85.060485 -4.905899 0.783309 3.786458 1.342522 -6.150852 2.136480 2.951688 13.203814 -12.138184 0.000000 -0.000000 0.000000 2.058905 -0.142360 -0.460065 -3.646952 -1.468401 10.299867 0.552633 -11.333269 -13.917917 0.000000 -0.000000 0.000000 -1.590831 3.142293 8.032889 -0.164541 -1.640411 6.153760 -0.805010 0.490875 -1.548298 2.720408 -0.622563 -3.972197 6.285960 -1.899427 -5.270828 -26.132724 -4.654443 -0.944011 -53.763320 -4.363672 14.893060 2.670088 -21.180508 3.730423 -8.021634 -3.983540 5.667697 25.360967 9.315818 0.156847 58.870921 2.713348 18.339345 -6.186849 27.595122 4.794407 5.090343 4.984850 3.985524 
2.346339 0.657162 0.993917 -91.267886 0.741674 85.004382 -5.220795 0.743996 4.112833 1.372168 -6.629785 1.963836 3.097476 13.293414 -12.516143 0.000000 -0.000000 0.000000 1.566995 -0.228904 -1.319967 -3.372508 -1.881433 12.405910 0.813638 -11.591082 -14.815506 0.000000 -0.000000 0.000000 -1.586023 2.890128 7.744524 -0.060119 -1.789728 6.762596 -0.803479 0.480934 -1.641539 2.603065 -0.407832 -3.996494 5.950127 -1.973376 -5.516134 -25.865067 -4.516570 -0.636570 -54.556246 -3.798114 14.978328 2.075888 -22.073227 3.983114 -7.536040 -3.852537 5.318414 25.222396 9.371051 0.223262 58.735013 2.811275 17.895635 -6.415689 27.574381 4.025079 4.779496 4.814377 3.841211 
2.344526 0.653091 0.992363 -91.032433 0.677629 84.775840 -5.527586 0.857258 4.683702 1.147255 -7.209435 1.720788 3.525995 13.273742 -12.809859 0.000000 -0.000000 0.000000 0.897050 -0.079171 -3.047512 -3.093065 -2.475754 16.482758 1.040790 -11.676328 -15.927356 0.000000 -0.000000 0.000000 -1.379615 2.326739 8.569737 -0.078407 -1.547469 6.247944 -0.931569 0.450049 -1.402869 2.634394 -0.380324 -4.579176 5.666928 -1.926634 -5.885577 -26.103838 -4.217353 -0.344842 -55.205522 -3.179699 14.728769 1.122571 -22.996136 4.172870 -7.637050 -3.900124 4.235477 25.065384 9.260726 -0.006593 58.661390 2.792562 17.586437 -6.999829 27.376356 3.170707 4.987477 4.744200 3.269763 
2.342122 0.649300 0.990306 -90.484286 0.621246 84.483569 -5.877769 0.872334 5.388418 1.070225 -7.960362 1.391212 4.049804 13.298307 -13.112430 0.000000 -0.000000 0.000000 0.094020 -0.324641 -5.066782 -2.883516 -3.005232 21.616468 1.198398 -10.977648 -15.539210 0.000000 -0.000000 0.000000 -1.164471 1.779528 9.239385 -0.094218 -1.508148 6.365844 -1.089614 0.298533 -1.541244 2.554703 -0.456036 -4.922310 5.507800 -1.820864 -6.295425 -26.360457 -4.076971 0.022084 -55.425493 -2.739741 13.753137 1.390059 -23.596656 1.578698 -6.409976 -4.214850 2.368477 25.210425 9.269427 -0.027947 58.391642 2.891058 17.087518 -7.694719 27.036287 1.869738 4.203216 4.954359 3.430503 
2.340061 0.646412 0.987986 -90.437189 0.436920 84.521918 -6.274713 0.953636 5.798954 1.013589 -8.258187 0.830994 4.489838 13.669341 -13.209716 0.000000 -0.000000 0.000000 -0.697089 -0.112678 -8.135862 -2.766985 -3.606669 27.428027 1.826397 -10.939228 -14.665875 0.000000 -0.000000 0.000000 -1.238953 1.336420 9.524926 -0.014593 -1.091307 6.414427 -1.290661 0.337135 -1.374274 2.730413 -0.416524 -5.552479 5.341327 -1.908922 -6.635622 -26.434985 -3.643141 -0.399415 -55.474412 -2.739489 13.217567 2.363096 -22.927927 -1.183001 -5.973288 -4.414268 1.599744 25.477323 9.111967 -0.438525 58.108037 2.965717 16.977006 -8.189077 26.557942 0.748159 4.283944 5.172820 3.485455 
2.336265 0.643265 0.987135 -90.473046 0.333385 84.371245 -6.679995 1.114888 6.619447 1.102377 -8.712910 0.225618 5.174424 14.094690 -13.275172 0.000000 -0.000000 0.000000 -1.246877 -0.093084 -11.002239 -2.999001 -4.275449 32.989755 2.222079 -11.303183 -13.680701 0.000000 -0.000000 0.000000 -1.114650 0.896156 9.758955 -0.002138 -0.850994 6.803111 -1.632535 0.522366 -1.641465 2.777338 -0.382026 -5.666902 5.146873 -1.823511 -6.952292 -26.162999 -3.267354 -0.926451 -55.396096 -3.002402 12.775286 3.062008 -21.705044 -3.309249 -7.666755 -3.743953 1.594959 25.534223 9.118291 -0.599470 58.324819 3.030561 16.925165 -8.958630 25.271494 -0.085953 5.239001 4.714567 4.179645 
2.332813 0.640235 0.987017 -90.917648 0.468554 84.138325 -6.798506 1.610446 7.388637 1.318053 -9.212087 -0.370597 5.478759 14.739246 -13.008164 0.000000 -0.000000 0.000000 -1.239640 0.865502 -14.459874 -3.004074 -5.213767 37.876003 1.839587 -12.319232 -13.432446 0.000000 -0.000000 0.000000 -0.804111 0.213782 10.986673 -0.088228 -0.152424 6.159228 -1.936230 0.917754 -1.507724 2.839218 -0.384433 -6.140528 5.034976 -1.735642 -7.025646 -26.003271 -3.407424 -1.386758 -54.953736 -3.344034 14.138725 4.211630 -20.050235 -0.159385 -8.258407 -3.171930 4.919654 25.618798 9.160584 -1.039769 58.580755 3.168388 16.991520 -9.479116 23.658005 0.021346 5.210964 4.295351 3.583181 
2.327111 0.638514 0.987835 -90.221410 0.954651 84.034422 -6.317653 1.862541 7.940074 1.352163 -9.862521 -0.388787 5.347101 14.640379 -13.181937 0.000000 -0.000000 0.000000 -0.767217 0.697323 -16.237291 -2.483499 -5.940523 38.898023 1.411179 -12.486217 -13.763330 0.000000 -0.000000 0.000000 -0.401206 -0.389535 11.147874 0.160224 -0.532396 6.616277 -1.893285 0.886621 -1.800471 2.731381 -0.199264 -6.255937 4.896996 -1.676461 -7.357073 -26.015902 -4.242705 -1.212545 -54.691824 -3.223599 14.883226 4.858303 -19.248228 1.356191 -9.406172 -2.350799 6.840135 25.564933 9.566817 -0.902376 58.328348 2.718522 16.938500 -9.535136 23.870449 0.544203 6.016052 3.688344 3.422209 
2.322023 0.637219 0.988742 -90.038120 1.173933 83.940810 -6.076441 2.289333 8.381368 1.358086 -10.369390 -0.296168 5.063014 14.763142 -13.672169 0.000000 -0.000000 0.000000 -0.354280 1.027074 -17.845064 -2.103532 -6.424956 38.172125 1.461998 -12.898965 -13.610805 0.000000 -0.000000 0.000000 -0.532703 -0.761229 11.897641 0.386106 -0.451908 6.225926 -1.686384 0.760111 -1.590175 2.764434 0.064232 -6.680591 5.015330 -1.488321 -7.740086 -25.840866 -4.761522 -1.321984 -54.496495 -3.392820 15.686333 4.986994 -18.638535 3.003074 -8.758478 -1.959872 8.586978 25.698146 9.617260 -1.032770 57.937971 2.665941 17.223858 -8.786634 23.889698 2.152090 5.963389 3.645886 4.312717 
2.315134 0.636261 0.989204 -89.528873 1.392895 83.741277 -5.788979 2.600265 9.372952 1.459162 -10.791112 -0.739433 4.697594 14.571464 -13.925222 0.000000 -0.000000 0.000000 0.225287 1.058488 -18.586497 -2.098979 -6.882007 35.418877 1.214136 -13.204573 -13.374121 0.000000 -0.000000 0.000000 -0.665078 -1.205861 12.221539 0.646391 -0.701962 6.684969 -1.390538 0.539164 -1.724957 2.795504 0.154239 -7.026943 5.079355 -1.251641 -8.102187 -25.947745 -5.319643 -0.929877 -53.889405 -3.723594 15.637504 4.273809 -19.050485 2.979160 -8.813332 -1.997053 8.297097 25.582987 9.964737 -0.948288 57.792331 2.523889 17.327889 -8.397622 24.459442 2.717031 6.503213 3.522348 4.171999 
2.308944 0.635771 0.989088 -89.227251 1.496142 83.997795 -5.697167 2.771145 9.787643 1.642609 -11.189165 -1.112268 4.451191 14.474959 -14.214454 0.000000 -0.000000 0.000000 0.839611 1.387312 -19.738694 -2.386196 -7.067022 31.617417 1.153174 -13.755875 -12.899776 0.000000 -0.000000 0.000000 -1.122612 -1.506105 12.603057 0.880772 -0.769745 6.592172 -0.982275 0.286449 -1.725743 3.062106 0.386107 -7.694108 5.388184 -1.126088 -8.518093 -25.888449 -5.640452 -1.036457 -53.498343 -4.038234 15.765400 3.610640 -19.752185 2.212805 -8.132538 -2.022165 7.676924 25.702280 10.052524 -1.010021 57.407014 2.527398 17.594279 -7.733394 25.300735 3.076392 5.799480 3.223517 4.342315 
2.300458 0.634578 0.988259 -88.935946 1.409607 83.988794 -5.929292 3.008457 10.524958 1.935906 -11.425820 -1.275997 3.993874 14.368204 -14.772996 0.000000 -0.000000 0.000000 1.106770 1.716404 -19.938858 -2.534659 -6.974614 26.531614 1.135203 -14.005345 -12.105763 0.000000 -0.000000 0.000000 -1.477985 -1.813738 12.760744 0.975193 -0.945268 6.888288 -0.759292 0.130887 -1.626158 3.131526 0.378194 -8.467161 5.895485 -1.013450 -8.800249 -25.827498 -6.007965 -0.816943 -53.237524 -4.704893 15.710389 3.241457 -20.488269 1.856902 -8.011044 -2.663594 7.005355 25.671314 10.228804 -1.033550 57.437135 2.681931 17.563035 -7.410075 25.534913 2.915332 5.888804 3.546824 3.817302 
2.290971 0.638935 0.988846 -88.735204 3.513966 84.517566 -2.628845 3.320385 10.597083 1.089881 -11.119171 -1.183463 3.319355 13.042453 -15.536766 0.000000 -0.000000 0.000000 3.970555 2.615337 -19.939278 -2.326366 -8.179192 20.059532 1.864978 -13.394332 -10.588688 0.000000 -0.000000 0.000000 -0.291517 -1.898650 12.429781 1.525323 -1.501040 7.803098 -0.393259 0.240088 -2.585635 3.138368 0.581764 -7.842381 6.324236 -1.197196 -10.152629 -26.390237 -6.951620 -0.343969 -52.256304 -4.852477 16.068795 2.813711 -21.205736 1.964998 -5.892722 -2.796141 6.607772 25.924410 10.811038 -0.926927 57.324440 2.457886 17.496169 -7.130096 25.444350 2.996737 4.810054 3.501511 2.900656 
